# xmcd CD database file
#
# Track frame offsets:
#	150
#	19770
#	38317
#	61447
#	80455
#	99252
#	118310
#	141042
#	159617
#	184767
#	207182
#	226800
#	249572
#	266965
#	286980
#	306982
#
# Disc length: 4354 seconds
#
# Revision: 0
# Processed by: cddbd v1.5.1PL2 Copyright (c) Steve Scherf et al.
# Submitted via: CDex 1.51
#
DISCID=db110010
DTITLE=Various Artist - The Best Blues Album
DYEAR=1997
DGENRE=Blues
TTITLE0=John Lee Hooker - Boom Boom
TTITLE1=Garry Moore - Stil Got The Blues
TTITLE2=Chris Rea - 90's Blues
TTITLE3=JJ Cale - Borrowed Time
TTITLE4=ZZ Top - My Head's in Mississippi
TTITLE5=Jeff Beck - Rock My Plimsoul
TTITLE6=Canned Heat - On The Road Again
TTITLE7=Alvin Lee and Ten Years - You Can't Win Them All
TTITLE8=Boz Scaggs - It All Went Down TheDrain
TTITLE9=George Thorogood - Bad To The Bone
TTITLE10=Jonny Winter - Shame Shame
TTITLE11=AlbertCollins - Tired Man
TTITLE12=Solomon Burke - Your Time To Cry
TTITLE13=The Duke Robillard Band - My Heart is Cryin'
TTITLE14=John Hammond - The First Time I Met The Blues
TTITLE15=Roy Rogers - Vida's Place
EXTD=YEAR: 1997
EXTT0=
EXTT1=
EXTT2=
EXTT3=
EXTT4=
EXTT5=
EXTT6=
EXTT7=
EXTT8=
EXTT9=
EXTT10=
EXTT11=
EXTT12=
EXTT13=
EXTT14=
EXTT15=
PLAYORDER=
